<svg xmlns="http://www.w3.org/2000/svg" version="1.1" xmlns:xlink="http://www.w3.org/1999/xlink" xmlns:svgjs="http://svgjs.dev/svgjs" width="2000" height="287" viewBox="0 0 2000 287"><g transform="matrix(1,0,0,1,-1.2121212121212466,-1.6965142110105091)"><svg viewBox="0 0 396 57" data-background-color="#ffffff" preserveAspectRatio="xMidYMid meet" height="287" width="2000" xmlns="http://www.w3.org/2000/svg" xmlns:xlink="http://www.w3.org/1999/xlink"><g id="tight-bounds" transform="matrix(1,0,0,1,0.2400000000000091,0.3369383624655029)"><svg viewBox="0 0 395.52 56.326123275068994" height="56.326123275068994" width="395.52"><g><svg viewBox="0 0 395.52 56.326123275068994" height="56.326123275068994" width="395.52"><g><svg viewBox="0 0 395.52 56.326123275068994" height="56.326123275068994" width="395.52"><g id="textblocktransform"><svg viewBox="0 0 395.52 56.326123275068994" height="56.326123275068994" width="395.52" id="textblock"><g><svg viewBox="0 0 395.52 56.326123275068994" height="56.326123275068994" width="395.52"><g transform="matrix(1,0,0,1,0,0)"><svg width="395.52" viewBox="1.6 -38.55 271.72999999999996 38.699999999999996" height="56.326123275068994" data-palette-color="#ff4b4b"><g class="wordmark-text-0" data-fill-palette-color="primary" id="text-0"><path d="M6.7 0L6.7 0Q4.1 0 2.85-1.55 1.6-3.1 1.6-5.7L1.6-5.7 1.6-29Q1.6-32.8 3.68-34.6 5.75-36.4 8.65-36.4L8.65-36.4Q11.4-36.4 13.33-34.6 15.25-32.8 16.15-28.9L16.15-28.9 20.05-11.95 21.35-11.95 25.25-28.9Q26.15-32.8 28.13-34.6 30.1-36.4 32.85-36.4L32.85-36.4Q35.75-36.4 37.83-34.6 39.9-32.8 39.9-29L39.9-29 39.9-5.7Q39.9-3.1 38.63-1.55 37.35 0 34.75 0L34.75 0Q32.25 0 30.9-1.55 29.55-3.1 29.55-5.7L29.55-5.7 29.55-19.15Q29.55-19.65 29.43-20.08 29.3-20.5 28.75-20.5L28.75-20.5Q28.3-20.5 28.1-20.08 27.9-19.65 27.8-19.15L27.8-19.15 25.9-6.55Q25.55-4.5 25.08-3.03 24.6-1.55 23.6-0.78 22.6 0 20.7 0L20.7 0Q18.85 0 17.82-0.78 16.8-1.55 16.32-3.03 15.85-4.5 15.55-6.55L15.55-6.55 13.6-19.15Q13.55-19.65 13.35-20.08 13.15-20.5 12.65-20.5L12.65-20.5Q12.15-20.5 12-20.08 11.85-19.65 11.85-19.15L11.85-19.15 11.85-5.7Q11.85-3.1 10.53-1.55 9.2 0 6.7 0ZM55.45 0.1L55.45 0.1Q49.6 0.1 46.12-3.38 42.65-6.85 42.65-13.2L42.65-13.2Q42.65-17.1 44.25-20.05 45.85-23 48.72-24.68 51.6-26.35 55.45-26.35L55.45-26.35Q59.75-26.35 62.6-24.68 65.45-23 66.87-20.05 68.3-17.1 68.3-13.2L68.3-13.2Q68.3-6.85 65.12-3.38 61.95 0.1 55.45 0.1ZM48.6-14.05L48.6-14.05Q48.6-12.5 50.15-11.88 51.7-11.25 55.45-11.25L55.45-11.25Q59.2-11.25 60.75-11.88 62.3-12.5 62.3-14.05L62.3-14.05Q62.3-15.55 60.75-16.15 59.2-16.75 55.45-16.75L55.45-16.75Q51.7-16.75 50.15-16.15 48.6-15.55 48.6-14.05ZM83.35 0.1L83.35 0.1Q77.5 0.1 74.02-3.38 70.55-6.85 70.55-13.2L70.55-13.2Q70.55-17.1 72.15-20.05 73.75-23 76.62-24.68 79.5-26.35 83.35-26.35L83.35-26.35Q87.65-26.35 90.5-24.68 93.35-23 94.77-20.05 96.2-17.1 96.2-13.2L96.2-13.2Q96.2-6.85 93.02-3.38 89.85 0.1 83.35 0.1ZM76.5-14.05L76.5-14.05Q76.5-12.5 78.05-11.88 79.6-11.25 83.35-11.25L83.35-11.25Q87.1-11.25 88.65-11.88 90.2-12.5 90.2-14.05L90.2-14.05Q90.2-15.55 88.65-16.15 87.1-16.75 83.35-16.75L83.35-16.75Q79.6-16.75 78.05-16.15 76.5-15.55 76.5-14.05ZM107.54 0L107.54 0Q98.44 0 98.44-13.4L98.44-13.4Q98.44-19.2 100.69-22.68 102.94-26.15 107.44-26.15L107.44-26.15Q109.89-26.15 111.42-25.15 112.94-24.15 113.82-22.43 114.69-20.7 115.09-18.45L115.09-18.45 115.24-18.5 115.24-33.65Q115.24-35.7 116.47-37.13 117.69-38.55 120.04-38.55L120.04-38.55Q122.34-38.55 123.47-37.13 124.59-35.7 124.59-33.55L124.59-33.55 124.59-11.05Q124.59-9.35 124.87-7.93 125.14-6.5 125.29-5.1L125.29-5.1Q125.44-3.2 124.52-1.83 123.59-0.45 121.24-0.05L121.24-0.05Q118.19 0.45 116.72-1.1 115.24-2.65 115.24-5.7L115.24-5.7 115.24-7.55 114.29-7.55Q114.29-3.9 112.47-1.95 110.64 0 107.54 0ZM106.79-13.85L106.79-13.85Q106.79-12.3 107.74-11.55 108.69-10.8 111.14-10.8L111.14-10.8Q113.64-10.8 114.59-11.55 115.54-12.3 115.54-13.85L115.54-13.85Q115.54-15.45 114.62-16.18 113.69-16.9 111.19-16.9L111.19-16.9Q108.69-16.9 107.74-16.18 106.79-15.45 106.79-13.85ZM133.04 0L133.04 0Q130.44 0 129.19-1.55 127.94-3.1 127.94-5.7L127.94-5.7 127.94-29Q127.94-32.8 130.02-34.6 132.09-36.4 134.99-36.4L134.99-36.4Q137.74-36.4 139.67-34.6 141.59-32.8 142.49-28.9L142.49-28.9 146.39-11.95 147.69-11.95 151.59-28.9Q152.49-32.8 154.47-34.6 156.44-36.4 159.19-36.4L159.19-36.4Q162.09-36.4 164.17-34.6 166.24-32.8 166.24-29L166.24-29 166.24-5.7Q166.24-3.1 164.97-1.55 163.69 0 161.09 0L161.09 0Q158.59 0 157.24-1.55 155.89-3.1 155.89-5.7L155.89-5.7 155.89-19.15Q155.89-19.65 155.77-20.08 155.64-20.5 155.09-20.5L155.09-20.5Q154.64-20.5 154.44-20.08 154.24-19.65 154.14-19.15L154.14-19.15 152.24-6.55Q151.89-4.5 151.42-3.03 150.94-1.55 149.94-0.78 148.94 0 147.04 0L147.04 0Q145.19 0 144.17-0.78 143.14-1.55 142.67-3.03 142.19-4.5 141.89-6.55L141.89-6.55 139.94-19.15Q139.89-19.65 139.69-20.08 139.49-20.5 138.99-20.5L138.99-20.5Q138.49-20.5 138.34-20.08 138.19-19.65 138.19-19.15L138.19-19.15 138.19-5.7Q138.19-3.1 136.87-1.55 135.54 0 133.04 0ZM176.59 0L176.59 0Q172.89 0 170.81-2 168.74-4 168.74-7.6L168.74-7.6Q168.74-11.2 171.14-12.83 173.54-14.45 177.29-14.45L177.29-14.45Q179.49-14.45 181.29-14.15 183.09-13.85 184.54-13.3L184.54-13.3 184.69-13.3 184.69-14.05Q184.69-15.2 183.84-15.88 182.99-16.55 181.69-16.5L181.69-16.5Q180.44-16.5 179.56-16.35 178.69-16.2 177.39-15.85L177.39-15.85Q174.99-15.25 173.24-15.95 171.49-16.65 170.84-18.7L170.84-18.7Q170.24-20.85 171.11-22.3 171.99-23.75 173.79-24.55L173.79-24.55Q175.34-25.3 177.26-25.8 179.19-26.3 181.44-26.3L181.44-26.3Q187.99-26.3 191.06-23.13 194.14-19.95 194.14-12.5L194.14-12.5 194.14-4.75Q194.14-2.7 192.89-1.35 191.64 0 189.44 0L189.44 0Q187.04 0 185.86-1.35 184.69-2.7 184.69-4.65L184.69-4.65 184.69-5.8 183.69-5.8Q183.69-4.5 183.21-3.15 182.74-1.8 181.26-0.9 179.79 0 176.59 0ZM177.09-10.95L177.09-10.95Q177.09-10.1 177.71-9.75 178.34-9.4 180.44-9.4L180.44-9.4Q182.34-9.4 183.09-9.75 183.84-10.1 183.84-10.95L183.84-10.95Q183.84-11.75 183.09-12.08 182.34-12.4 180.44-12.4L180.44-12.4Q178.34-12.4 177.71-12.08 177.09-11.75 177.09-10.95ZM211.24 0.15L211.24 0.15Q208.59 0.15 206.46-1.05 204.34-2.25 203.14-4.48 201.94-6.7 201.94-9.7L201.94-9.7 201.94-18.5 200.09-18.25Q198.59-18.05 197.44-19.3 196.29-20.55 196.29-22.45L196.29-22.45Q196.29-24.35 197.44-25.58 198.59-26.8 200.09-26.6L200.09-26.6 201.94-26.35 201.89-29.75Q201.84-31.75 203.04-32.93 204.24-34.1 206.54-34.1L206.54-34.1Q208.84-34.1 210.09-32.93 211.34-31.75 211.24-29.75L211.24-29.75 211.14-26.35 213.79-26.7Q216.49-27.1 217.89-25.73 219.29-24.35 219.29-22.45L219.29-22.45Q219.29-20.55 217.91-19.18 216.54-17.8 213.94-18.15L213.94-18.15 211.14-18.5 211.14-11.05Q211.14-10.4 211.59-9.88 212.04-9.35 212.69-9.55L212.69-9.55Q213.44-9.75 214.26-10.4 215.09-11.05 216.39-11.05L216.39-11.05Q218.34-11.05 219.39-9.65 220.44-8.25 220.44-6.2L220.44-6.2Q220.44-4.6 219.31-3.13 218.19-1.65 216.14-0.75 214.09 0.15 211.24 0.15ZM235.53 0.15L235.53 0.15Q231.63 0.15 228.63-1.48 225.63-3.1 223.93-6.1 222.23-9.1 222.23-13.15L222.23-13.15Q222.23-17.2 223.93-20.2 225.63-23.2 228.66-24.85 231.68-26.5 235.63-26.5L235.63-26.5Q238.73-26.5 241.11-25.85 243.48-25.2 244.86-23.9 246.23-22.6 246.23-20.65L246.23-20.65Q246.23-18.3 245.03-16.98 243.83-15.65 241.58-15.65L241.58-15.65Q240.08-15.65 238.61-16.1 237.13-16.55 234.83-16.55L234.83-16.55Q232.93-16.55 231.63-15.95 230.33-15.35 230.33-13.75L230.33-13.75Q230.33-12.1 231.63-11.38 232.93-10.65 234.83-10.65L234.83-10.65Q236.38-10.65 237.43-10.95 238.48-11.25 239.43-11.55 240.38-11.85 241.58-11.85L241.58-11.85Q244.13-11.85 245.36-10.38 246.58-8.9 246.58-6.6L246.58-6.6Q246.58-4.65 245.13-3.13 243.68-1.6 241.18-0.73 238.68 0.15 235.53 0.15ZM253.33 0L253.33 0Q251.13 0 249.86-1.33 248.58-2.65 248.58-4.6L248.58-4.6 248.58-33.55Q248.58-35.65 249.86-37.1 251.13-38.55 253.48-38.55L253.48-38.55Q255.78-38.55 256.96-37.1 258.13-35.65 258.13-33.5L258.13-33.5 258.13-18.55 259.03-18.55Q259.03-21.4 260.06-23.05 261.08-24.7 262.71-25.43 264.33-26.15 266.03-26.15L266.03-26.15Q269.03-26.15 270.61-24.68 272.18-23.2 272.76-20.75 273.33-18.3 273.33-15.4L273.33-15.4 273.33-4.6Q273.33-2.55 272.01-1.28 270.68 0 268.48 0L268.48 0Q266.23 0 264.93-1.28 263.63-2.55 263.63-4.6L263.63-4.6 263.63-13.45Q263.63-15.25 262.93-16.25 262.23-17.25 260.88-17.25L260.88-17.25Q259.53-17.25 258.83-16.15 258.13-15.05 258.13-13.35L258.13-13.35 258.13-4.6Q258.13-2.65 256.86-1.33 255.58 0 253.33 0Z" fill="#ff4b4b" data-fill-palette-color="primary"></path></g></svg></g></svg></g></svg></g></svg></g></svg></g><defs></defs></svg><rect width="395.52" height="56.326123275068994" fill="none" stroke="none" visibility="hidden"></rect></g></svg></g></svg>